<svg width="112" height="58" viewBox="0 0 112 58" fill="none" xmlns="http://www.w3.org/2000/svg">
<g filter="url(#filter0_d_1_1765)">
<path fill-rule="evenodd" clip-rule="evenodd" d="M84.6206 5.54517C86.5023 5.54517 88.3418 6.10316 89.9064 7.14859C91.471 8.19402 92.6904 9.67993 93.4105 11.4184C94.1306 13.1569 94.3191 15.0699 93.952 16.9154C93.5848 18.761 92.6787 20.4563 91.3482 21.7869C90.0176 23.1174 88.3223 24.0236 86.4767 24.3907C84.6312 24.7578 82.7182 24.5694 80.9797 23.8493C79.2412 23.1292 77.7553 21.9097 76.7099 20.3451C75.6645 18.7805 75.1064 16.9411 75.1064 15.0593C75.1064 12.536 76.1088 10.1161 77.8931 8.3318C79.6773 6.54755 82.0973 5.54517 84.6206 5.54517Z" fill="white"/>
<path fill-rule="evenodd" clip-rule="evenodd" d="M75.0325 26.7549H94.2038C99.2076 26.7549 103.303 31.6111 103.303 37.5465V45.9953H65.9473V37.5465C65.9473 31.6111 70.0425 26.7549 75.0464 26.7549" fill="white"/>
<path d="M49.7417 36.9561V32.1229L51.1668 33.4511V38.0629C50.7324 37.6457 50.2547 37.2762 49.7417 36.9607V36.9561ZM64.7301 45.9998H54.4088C54.3627 45.511 54.2982 45.036 54.2198 44.5748H64.7301V45.9998ZM49.7417 20.8885V15.1883C49.7429 14.4927 50.0198 13.826 50.5116 13.3341C51.0035 12.8423 51.6702 12.5654 52.3658 12.5642H68.0137L68.2258 12.7764L77.3526 22.0276L77.5601 22.5257V24.1814H76.1213V23.5265H66.953L66.9853 13.9893H52.3658C52.2082 13.9886 52.052 14.0192 51.9062 14.0793C51.7605 14.1393 51.6281 14.2276 51.5166 14.3391C51.4051 14.4506 51.3168 14.583 51.2568 14.7287C51.1967 14.8745 51.1662 15.0307 51.1668 15.1883V22.4196L49.7417 20.8885Z" fill="white"/>
<path d="M54.6206 20.1277L63.8073 20.1461V21.562L54.6206 21.5435V20.1277Z" fill="white"/>
<path d="M56.3779 23.2729L64.2964 23.2868V24.7026L56.3779 24.6888V23.2729Z" fill="white"/>
<path d="M60.0996 27.6589H68.8344C68.2855 28.0808 67.7789 28.555 67.3217 29.0748H60.0996V27.6589Z" fill="white"/>
<path d="M63.6689 31.3066H65.7765C65.5332 31.7646 65.3191 32.2375 65.1355 32.7225H63.6689V31.3066Z" fill="white"/>
<path d="M51.4075 24.1167L47.1714 28.3528L56.2012 37.3826L60.4373 33.1465L51.4075 24.1167Z" fill="white"/>
<path fill-rule="evenodd" clip-rule="evenodd" d="M44.4795 24.3888L47.4541 21.4142C47.6251 21.2534 47.8511 21.1638 48.0859 21.1638C48.3207 21.1638 48.5467 21.2534 48.7177 21.4142L50.4979 23.199L46.2642 27.4372L44.4795 25.6525C44.3961 25.5697 44.3299 25.4713 44.2847 25.3628C44.2396 25.2544 44.2163 25.1381 44.2163 25.0206C44.2163 24.9032 44.2396 24.7869 44.2847 24.6784C44.3299 24.57 44.3961 24.4716 44.4795 24.3888Z" fill="white"/>
<path fill-rule="evenodd" clip-rule="evenodd" d="M63.5861 40.4659L62.2809 37.0578L60.9758 33.6543L58.8728 35.7527L56.7744 37.8557L60.1779 39.1608L63.5861 40.4659Z" fill="white"/>
<path fill-rule="evenodd" clip-rule="evenodd" d="M62.6129 39.4926L61.6352 37.2835L60.6621 35.0745L59.4262 36.3058L58.1948 37.5418L60.4039 38.5149L62.6129 39.4926Z" fill="white"/>
<path fill-rule="evenodd" clip-rule="evenodd" d="M62.6132 39.4928L61.6355 37.2837L61.5294 37.0393L60.1597 38.409L60.4041 38.5151L62.6132 39.4928Z" fill="white"/>
<path fill-rule="evenodd" clip-rule="evenodd" d="M39.8535 17.2408C41.2924 10.6044 40.1625 6.59672 35.7813 5.90034C34.8266 2.02181 25.1418 4.97798 22.6745 6.86421C20.2072 8.75044 20.2579 12.0156 21.0419 17.1117C19.9582 15.6036 18.8098 18.3661 20.9681 21.6174C20.952 21.7452 20.9628 21.8749 20.9998 21.9982C21.0368 22.1216 21.0993 22.2358 21.1831 22.3335C21.267 22.4313 21.3704 22.5104 21.4866 22.5658C21.6029 22.6211 21.7295 22.6516 21.8582 22.655C24.404 35.3006 35.6106 35.8033 38.885 22.7796C39.1738 22.7116 39.4293 22.5439 39.6065 22.306C39.7837 22.068 39.8712 21.7752 39.8535 21.479C41.5875 18.8272 41.1033 16.0325 39.8535 17.2408Z" fill="white"/>
<path fill-rule="evenodd" clip-rule="evenodd" d="M36.6209 31.9019C39.5387 33.5132 42.61 34.8294 45.7892 35.8311C50.5024 37.044 52.3702 40.8395 52.7345 45.9771H8C8.36433 40.8211 10.2321 37.0256 14.9454 35.8311C18.1245 34.8294 21.1958 33.5132 24.1136 31.9019L28.0429 42.4214L30.3488 35.7066L32.6547 42.4214L36.584 31.9019" fill="white"/>
</g>
<defs>
<filter id="filter0_d_1_1765" x="0" y="0" width="111.303" height="57.9998" filterUnits="userSpaceOnUse" color-interpolation-filters="sRGB">
<feFlood flood-opacity="0" result="BackgroundImageFix"/>
<feColorMatrix in="SourceAlpha" type="matrix" values="0 0 0 0 0 0 0 0 0 0 0 0 0 0 0 0 0 0 127 0" result="hardAlpha"/>
<feOffset dy="4"/>
<feGaussianBlur stdDeviation="4"/>
<feComposite in2="hardAlpha" operator="out"/>
<feColorMatrix type="matrix" values="0 0 0 0 0 0 0 0 0 0 0 0 0 0 0 0 0 0 0.25 0"/>
<feBlend mode="normal" in2="BackgroundImageFix" result="effect1_dropShadow_1_1765"/>
<feBlend mode="normal" in="SourceGraphic" in2="effect1_dropShadow_1_1765" result="shape"/>
</filter>
</defs>
</svg>
