<svg width="17" height="16" viewBox="0 0 17 16" fill="none" xmlns="http://www.w3.org/2000/svg">
<path d="M9.26316 10.9474H12.6316V8.42105L16.8421 12.2105L12.6316 16V13.4737H9.26316V10.9474ZM15.1579 0H1.68421C1.23753 0 0.809144 0.177443 0.493294 0.493294C0.177443 0.809144 0 1.23753 0 1.68421V11.7895C0 12.2362 0.177443 12.6645 0.493294 12.9804C0.809144 13.2962 1.23753 13.4737 1.68421 13.4737H7.87368C7.67717 12.934 7.5774 12.3638 7.57895 11.7895C7.58014 10.7045 7.93054 9.64879 8.57829 8.77843C9.22604 7.90808 10.1368 7.26934 11.1757 6.95672C12.2146 6.64409 13.3266 6.67419 14.3471 7.04256C15.3676 7.41092 16.2424 8.09798 16.8421 9.0021V1.68421C16.8421 1.23753 16.6647 0.809144 16.3488 0.493294C16.033 0.177443 15.6046 0 15.1579 0ZM15.1579 3.36842L8.42105 7.57895L1.68421 3.36842V1.68421L8.42105 5.89474L15.1579 1.68421V3.36842Z" fill="#E7E7E7"/>
</svg>
