<svg width="18" height="14" viewBox="0 0 18 14" fill="none" xmlns="http://www.w3.org/2000/svg">
<path d="M8.8421 0C5.49684 0 2.46105 1.31158 0.213684 3.44105C0.0810526 3.57368 0 3.75789 0 3.96421C0 4.17053 0.0810526 4.35474 0.213684 4.48737L2.04105 6.31474C2.17368 6.44737 2.35789 6.52842 2.57895 6.52842C2.76316 6.52842 2.94737 6.44737 3.08 6.3221C3.66211 5.77684 4.32526 5.32 5.04 4.95895C5.28316 4.84105 5.45263 4.59053 5.45263 4.29579V2.01158C6.52105 1.65789 7.65579 1.47368 8.8421 1.47368C10.0137 1.47368 11.1558 1.65789 12.2242 2.00421V4.28842C12.2242 4.57579 12.3937 4.83368 12.6368 4.95158C13.3589 5.31263 14 5.77684 14.6042 6.31474C14.7368 6.44737 14.9211 6.52105 15.1053 6.52105C15.3263 6.52105 15.5105 6.44 15.6432 6.30737L17.4705 4.48C17.6032 4.34737 17.6842 4.16316 17.6842 3.95684C17.6842 3.75053 17.5958 3.57368 17.4632 3.44105C15.2158 1.31158 12.18 0 8.8421 0ZM6.63158 2.94737V5.15789C6.63158 5.15789 2.21053 8.8421 2.21053 11.0526V14H15.4737V11.0526C15.4737 8.8421 11.0526 5.15789 11.0526 5.15789V2.94737H9.57895V4.42105H8.10526V2.94737H6.63158ZM8.8421 6.63158C9.6238 6.63158 10.3735 6.9421 10.9262 7.49484C11.4789 8.04758 11.7895 8.79726 11.7895 9.57895C11.7895 10.3606 11.4789 11.1103 10.9262 11.6631C10.3735 12.2158 9.6238 12.5263 8.8421 12.5263C8.06041 12.5263 7.31074 12.2158 6.758 11.6631C6.20526 11.1103 5.89474 10.3606 5.89474 9.57895C5.89474 8.79726 6.20526 8.04758 6.758 7.49484C7.31074 6.9421 8.06041 6.63158 8.8421 6.63158ZM8.8421 7.73684C8.35355 7.73684 7.885 7.93092 7.53954 8.27638C7.19408 8.62184 7 9.09039 7 9.57895C7 10.0675 7.19408 10.5361 7.53954 10.8815C7.885 11.227 8.35355 11.4211 8.8421 11.4211C9.33066 11.4211 9.79921 11.227 10.1447 10.8815C10.4901 10.5361 10.6842 10.0675 10.6842 9.57895C10.6842 9.09039 10.4901 8.62184 10.1447 8.27638C9.79921 7.93092 9.33066 7.73684 8.8421 7.73684Z" fill="#E7E7E7"/>
</svg>
