<svg width="117" height="58" viewBox="0 0 117 58" fill="none" xmlns="http://www.w3.org/2000/svg">
<g filter="url(#filter0_d_1_1748)">
<path fill-rule="evenodd" clip-rule="evenodd" d="M48.2266 46L67.8443 45.9478V42.2051H66.5402L67.8443 40.3229V39.3405C67.8418 37.3969 68.1185 35.4631 68.6658 33.5982H55.1469C54.6746 33.597 54.2219 33.4089 53.8879 33.0749C53.5539 32.7409 53.3658 32.2883 53.3647 31.8159V12.846C53.3658 12.3736 53.5539 11.921 53.8879 11.587C54.2219 11.253 54.6746 11.0649 55.1469 11.0637H78.4203C78.4595 10.8029 78.5073 9.56838 78.5638 9.32495H52.9995C52.4976 9.32724 52.0168 9.52765 51.6619 9.88259C51.307 10.2375 51.1065 10.7183 51.1043 11.2202V33.1244C51.1065 33.6263 51.307 34.1071 51.6619 34.462C52.0168 34.8169 52.4976 35.0173 52.9995 35.0196H51.8737C51.439 35.0196 51.3607 35.4543 51.1043 35.789L46.6139 41.6835C45.8054 42.7441 46.5139 46.0043 48.2266 46Z" fill="white"/>
<path fill-rule="evenodd" clip-rule="evenodd" d="M39.1107 17.9099C40.5191 11.433 39.415 7.51639 35.1333 6.83393C34.203 3.04775 24.7441 5.96454 22.3359 7.77721C19.9277 9.58988 19.9712 12.8066 20.7406 17.7751C19.6843 16.3015 18.5671 19.001 20.6667 22.1742C20.6488 22.2996 20.6578 22.4273 20.6931 22.5489C20.7284 22.6704 20.7892 22.7831 20.8714 22.8794C20.9537 22.9756 21.0555 23.0532 21.1701 23.107C21.2847 23.1608 21.4095 23.1896 21.5361 23.1914C24.0182 35.5367 34.9637 36.0322 38.1631 23.3131C38.4448 23.2453 38.6936 23.0805 38.8661 22.8477C39.0385 22.6148 39.1236 22.3287 39.1064 22.0395C40.8017 19.4313 40.3278 16.7232 39.1064 17.9012" fill="white"/>
<path fill-rule="evenodd" clip-rule="evenodd" d="M35.9551 32.2549C38.8061 33.8265 41.8056 35.1122 44.9097 36.0932C49.5131 37.2582 51.3345 40.9487 51.691 45.9999H8C8.35645 40.9487 10.1735 37.2582 14.7812 36.0758C17.8847 35.1004 20.8842 33.8205 23.7359 32.2549L27.5612 42.5093L29.8303 35.9541L32.1037 42.5093C33.3904 39.0839 34.6742 35.6658 35.9551 32.2549Z" fill="white"/>
<path fill-rule="evenodd" clip-rule="evenodd" d="M88.8225 4C90.7758 4 92.6853 4.57923 94.3094 5.66444C95.9336 6.74965 97.1994 8.29211 97.9469 10.0968C98.6944 11.9014 98.89 13.8872 98.5089 15.803C98.1279 17.7188 97.1873 19.4785 95.806 20.8598C94.4248 22.241 92.6651 23.1816 90.7493 23.5627C88.8335 23.9437 86.8477 23.7482 85.043 23.0006C83.2384 22.2531 81.6959 20.9873 80.6107 19.3631C79.5255 17.739 78.9463 15.8295 78.9463 13.8762C78.9463 11.2569 79.9868 8.74483 81.839 6.89268C83.6911 5.04053 86.2032 4 88.8225 4Z" fill="white"/>
<path fill-rule="evenodd" clip-rule="evenodd" d="M78.8547 26.0215H98.7636C103.958 26.0215 108.209 31.0639 108.209 37.2279V46H69.4219V37.2279C69.4219 31.0639 73.6732 26.0215 78.8677 26.0215" fill="white"/>
<path fill-rule="evenodd" clip-rule="evenodd" d="M58.4503 15.0413H75.3468C75.5206 15.0424 75.6869 15.1119 75.8097 15.2348C75.9326 15.3576 76.0021 15.5239 76.0032 15.6976C76.0021 15.8714 75.9326 16.0377 75.8097 16.1605C75.6869 16.2834 75.5206 16.3529 75.3468 16.354H58.4503C58.2766 16.3529 58.1103 16.2834 57.9875 16.1605C57.8646 16.0377 57.7951 15.8714 57.7939 15.6976C57.7951 15.5239 57.8646 15.3576 57.9875 15.2348C58.1103 15.1119 58.2766 15.0424 58.4503 15.0413Z" fill="white"/>
<path fill-rule="evenodd" clip-rule="evenodd" d="M58.4503 18.9143H75.3468C75.5206 18.9154 75.6869 18.985 75.8097 19.1078C75.9326 19.2307 76.0021 19.397 76.0032 19.5707C76.0021 19.7444 75.9326 19.9107 75.8097 20.0336C75.6869 20.1564 75.5206 20.2259 75.3468 20.2271H58.4503C58.2766 20.2259 58.1103 20.1564 57.9875 20.0336C57.8646 19.9107 57.7951 19.7444 57.7939 19.5707C57.7951 19.397 57.8646 19.2307 57.9875 19.1078C58.1103 18.985 58.2766 18.9154 58.4503 18.9143Z" fill="white"/>
<path fill-rule="evenodd" clip-rule="evenodd" d="M58.4503 22.8569H75.3468C75.5206 22.8581 75.6869 22.9276 75.8097 23.0504C75.9326 23.1733 76.0021 23.3396 76.0032 23.5133C76.0032 23.6878 75.9342 23.8552 75.8112 23.979C75.6883 24.1028 75.5213 24.1729 75.3468 24.1741H58.4503C58.2758 24.1729 58.1089 24.1028 57.9859 23.979C57.863 23.8552 57.7939 23.6878 57.7939 23.5133C57.7951 23.3396 57.8646 23.1733 57.9875 23.0504C58.1103 22.9276 58.2766 22.8581 58.4503 22.8569Z" fill="white"/>
</g>
<defs>
<filter id="filter0_d_1_1748" x="0" y="0" width="116.209" height="58" filterUnits="userSpaceOnUse" color-interpolation-filters="sRGB">
<feFlood flood-opacity="0" result="BackgroundImageFix"/>
<feColorMatrix in="SourceAlpha" type="matrix" values="0 0 0 0 0 0 0 0 0 0 0 0 0 0 0 0 0 0 127 0" result="hardAlpha"/>
<feOffset dy="4"/>
<feGaussianBlur stdDeviation="4"/>
<feComposite in2="hardAlpha" operator="out"/>
<feColorMatrix type="matrix" values="0 0 0 0 0 0 0 0 0 0 0 0 0 0 0 0 0 0 0.25 0"/>
<feBlend mode="normal" in2="BackgroundImageFix" result="effect1_dropShadow_1_1748"/>
<feBlend mode="normal" in="SourceGraphic" in2="effect1_dropShadow_1_1748" result="shape"/>
</filter>
</defs>
</svg>
