<svg width="79" height="64" viewBox="0 0 79 64" fill="none" xmlns="http://www.w3.org/2000/svg">
<g filter="url(#filter0_d_1_1757)">
<path fill-rule="evenodd" clip-rule="evenodd" d="M10.2792 5.34699H14.0318V5.74201C14.0329 5.98264 14.1289 6.21313 14.2991 6.38329C14.4693 6.55344 14.6997 6.6495 14.9404 6.65054H20.2099C20.4509 6.64951 20.6818 6.55358 20.8525 6.38353C21.0233 6.21349 21.1203 5.98301 21.1223 5.74201V5.34699H24.871C25.1263 5.34803 25.3709 5.44991 25.5514 5.63044C25.7319 5.81097 25.8338 6.05552 25.8348 6.31083V34.416C25.8338 34.6713 25.7319 34.9159 25.5514 35.0964C25.3709 35.2769 25.1263 35.3788 24.871 35.3798H10.2792C10.0243 35.3788 9.78014 35.2768 9.60024 35.0961C9.42034 34.9155 9.31934 34.6709 9.31934 34.416V6.31083C9.31934 6.05588 9.42034 5.81133 9.60024 5.63069C9.78014 5.45005 10.0243 5.34804 10.2792 5.34699ZM9.83287 4H25.1317C25.6165 4.00517 26.0799 4.2006 26.422 4.54418C26.7641 4.88775 26.9575 5.35197 26.9606 5.83681V35.0678C26.9596 35.5571 26.765 36.0261 26.4194 36.3724C26.0738 36.7188 25.6052 36.9143 25.1159 36.9164H9.83287C9.34564 36.9112 8.88007 36.7143 8.53701 36.3683C8.19395 36.0223 8.00101 35.555 8 35.0678V5.83681C8.00411 5.35161 8.19841 4.88739 8.54114 4.54392C8.88387 4.20045 9.34768 4.00516 9.83287 4Z" fill="white"/>
<path fill-rule="evenodd" clip-rule="evenodd" d="M35.9866 36.3318C36.2713 36.331 36.5498 36.4148 36.7869 36.5725C37.024 36.7302 37.2089 36.9547 37.3182 37.2176C37.4275 37.4805 37.4563 37.7699 37.4009 38.0492C37.3456 38.3285 37.2086 38.585 37.0072 38.7863C36.8059 38.9877 36.5494 39.1247 36.2701 39.18C35.9908 39.2354 35.7014 39.2066 35.4385 39.0973C35.1756 38.988 34.9511 38.803 34.7934 38.566C34.6357 38.3289 34.5519 38.0504 34.5527 37.7657C34.5527 37.3854 34.7038 37.0207 34.9727 36.7518C35.2416 36.4829 35.6063 36.3318 35.9866 36.3318ZM40.9914 40.1042H15.3155C14.6607 40.1031 14.033 39.8428 13.5696 39.3801C13.1062 38.9175 12.8449 38.2901 12.8428 37.6353V35.364H46.3162L47.521 38.1567C45.7157 36.9717 42.1251 37.8052 40.9914 40.1042ZM26.2693 7.91455H56.8551C57.5099 7.91559 58.1377 8.17591 58.6011 8.63857C59.0645 9.10122 59.3258 9.72857 59.3279 10.3834V27.3689C58.8759 27.1446 58.3732 27.0422 57.8694 27.072C57.3657 27.1018 56.8785 27.2627 56.4562 27.5388V12.6547H26.2693V7.91455Z" fill="white"/>
<path fill-rule="evenodd" clip-rule="evenodd" d="M14.0161 17.6278L15.0787 16.5652C15.5476 17.8166 15.7833 19.1434 15.7739 20.4798C15.7769 21.4949 15.6441 22.5059 15.3789 23.4858L14.3203 22.4074C14.4687 21.7757 14.5429 21.1287 14.5415 20.4798C14.5499 19.5057 14.3771 18.5386 14.0319 17.6278" fill="white"/>
<path fill-rule="evenodd" clip-rule="evenodd" d="M16.2358 15.4082L17.4801 14.156C18.6051 16.0708 19.1881 18.2555 19.1668 20.4762C19.177 22.3915 18.7472 24.2835 17.9107 26.0064L16.619 24.7108C17.1649 23.3606 17.4413 21.9167 17.4327 20.4604C17.4571 18.6984 17.0503 16.9572 16.2477 15.3884" fill="white"/>
<path fill-rule="evenodd" clip-rule="evenodd" d="M18.4758 13.1679L19.6371 12.0066C21.1405 14.5751 21.9187 17.5036 21.8887 20.4796C21.9078 23.1539 21.2861 25.7938 20.0756 28.1784L18.8905 26.9934C19.9011 24.9646 20.4194 22.7263 20.4034 20.4599C20.4277 17.8919 19.7561 15.3652 18.46 13.1482" fill="white"/>
<path fill-rule="evenodd" clip-rule="evenodd" d="M47.1063 28.2539C46.2491 26.2275 48.0859 25.627 48.9629 27.5705C50.3955 31.1019 51.828 34.636 53.2606 38.1726C54.3074 40.1043 56.1008 38.9232 55.3621 37.3826L53.312 32.2474C52.834 30.7503 54.2758 30.5094 54.892 31.6628C55.7847 33.7696 56.6801 35.8763 57.5781 37.983C58.4787 39.7566 60.513 38.6072 59.5808 37.1496L57.5781 32.1645C57.1357 30.699 58.6565 30.1302 59.3359 31.6786C60.2181 33.68 61.0977 35.6827 61.9746 37.6868C62.4881 39.1957 64.5698 38.6625 63.9813 37.0548L61.6823 31.726C61.0187 30.3237 62.8673 29.672 63.5902 31.3824L67.647 41.0088C69.5114 47.2224 64.6686 51.6149 58.9014 49.5569L45.5974 43.1064C43.9265 42.3519 44.0884 40.8587 46.0398 41.3446L50.8273 43.2012C52.6602 43.7581 53.1974 43.059 52.6365 41.2261L47.1063 28.2539ZM45.1984 29.5495C43.488 24.4578 48.8207 22.4195 50.9024 26.7844L52.04 29.593C53.2488 28.6726 54.6313 28.3645 56.4484 29.593C57.2384 28.2736 58.8579 28.1472 60.2365 29.356C61.4848 27.5981 63.8786 27.7759 65.2611 29.9524C66.5567 33.0862 67.8537 36.2173 69.152 39.3458C71.3325 45.3184 69.4364 50.1613 64.475 51.5912C63.4914 52.1206 59.2056 52.3813 56.7249 50.8012C53.7702 49.2567 48.9747 46.8748 44.7994 45.1446C40.2173 42.7745 41.7934 38.2437 45.9371 39.1049C47.1221 39.4367 48.7891 40.3294 49.986 40.6652L45.1984 29.5495Z" fill="white"/>
<path fill-rule="evenodd" clip-rule="evenodd" d="M39.5615 24.7143C40.0908 21.3606 42.7216 19.3895 46.3953 19.1841V20.851C43.8751 20.7957 42.0146 22.0835 41.3825 24.7261L39.5615 24.7143Z" fill="white"/>
</g>
<defs>
<filter id="filter0_d_1_1757" x="0" y="0" width="78.0469" height="64" filterUnits="userSpaceOnUse" color-interpolation-filters="sRGB">
<feFlood flood-opacity="0" result="BackgroundImageFix"/>
<feColorMatrix in="SourceAlpha" type="matrix" values="0 0 0 0 0 0 0 0 0 0 0 0 0 0 0 0 0 0 127 0" result="hardAlpha"/>
<feOffset dy="4"/>
<feGaussianBlur stdDeviation="4"/>
<feComposite in2="hardAlpha" operator="out"/>
<feColorMatrix type="matrix" values="0 0 0 0 0 0 0 0 0 0 0 0 0 0 0 0 0 0 0.25 0"/>
<feBlend mode="normal" in2="BackgroundImageFix" result="effect1_dropShadow_1_1757"/>
<feBlend mode="normal" in="SourceGraphic" in2="effect1_dropShadow_1_1757" result="shape"/>
</filter>
</defs>
</svg>
